<svg xmlns="http://www.w3.org/2000/svg" width="115.747" height="36.416" viewBox="0 0 115.747 36.416">
  <g id="Group_103" data-name="Group 103" transform="translate(-85.141 -33.688)">
    <path id="Path_3914" data-name="Path 3914" d="M152.741,103.249a4.608,4.608,0,0,0-.952-2.66,2.242,2.242,0,0,0-1.722-.845,2.271,2.271,0,0,0-1.818,1.074,5.487,5.487,0,0,0-.747,3.29,4.79,4.79,0,0,0,.919,2.665,2.178,2.178,0,0,0,1.652.86,2.314,2.314,0,0,0,1.875-1.071,5.45,5.45,0,0,0,.793-3.313m-15.1.859a4.783,4.783,0,0,0,.92,2.665,2.176,2.176,0,0,0,1.651.86,2.314,2.314,0,0,0,1.875-1.071,5.45,5.45,0,0,0,.793-3.313,4.607,4.607,0,0,0-.951-2.66,2.244,2.244,0,0,0-1.723-.845,2.273,2.273,0,0,0-1.818,1.074A5.487,5.487,0,0,0,137.646,104.108Zm56.288.365-1.446-3.078-1.446,3.078ZM150.141,98.75c5.14.319,5.573,9.711-.086,9.925h-.014c-5.524-.246-5.026-9.791.085-9.924h.015Zm-9.856,0c5.14.319,5.574,9.711-.086,9.925h-.014c-5.524-.246-5.026-9.791.085-9.924h.015Zm55.3,9.232-1.119-2.382c-1.318,0-2.636.007-3.954.008l-1.116,2.374h.92v.739h-2.978v-.739h.906a.112.112,0,0,0,.1-.064l4.4-9.368,4.4,9.368a.113.113,0,0,0,.1.064h.818v.739H194.7v-.739ZM132.61,99.363v-.6l1.189.011.025,3.041-1.053.04-.022-.284a1.613,1.613,0,0,0-.461-1.019,2.145,2.145,0,0,0-.784-.5,2.6,2.6,0,0,0-2.811.716,5.088,5.088,0,0,0,.159,5.926,2.555,2.555,0,0,0,1.985.954h.057a2.458,2.458,0,0,0,1.481-.459v-1.927a.112.112,0,0,0-.112-.112H131.7v-.739h2.833v.739h-.568a.112.112,0,0,0-.111.112v2.195l-.064.079a3.392,3.392,0,0,1-2.773,1.088c-6.623,0-5.879-9.76-.543-9.76h0A3.94,3.94,0,0,1,132.61,99.363Zm50.63,4.349h-4.865v4.1a.112.112,0,0,0,.112.112h.756v.738h-3.315v-.738h.861a.112.112,0,0,0,.111-.112V99.606a.112.112,0,0,0-.111-.112h-.8v-.739h3.264v.739h-.765a.112.112,0,0,0-.112.112v2.971h4.865V99.606a.112.112,0,0,0-.112-.112h-.789v-.739h3.276v.739h-.788a.112.112,0,0,0-.112.112v8.208a.112.112,0,0,0,.112.112h.75v.738h-3.264v-.738h.815a.112.112,0,0,0,.112-.112ZM170.966,107.7c.883,0,1.776-.1,2.056-1.079l0-.008.074-.189h1.032l-.883,1.88-.2.071a4.895,4.895,0,0,1-5.471-1.213,4.523,4.523,0,0,1-.761-1.2,5.405,5.405,0,0,1-.356-2.91,4.764,4.764,0,0,1,4.145-4.273,4.23,4.23,0,0,1,2.434.488l.082.045.963,2.051h-1.017l-.079-.159a2.4,2.4,0,0,0-1.9-1.437,2.64,2.64,0,0,0-2.274,1.077,4.84,4.84,0,0,0-.842,3.527C168.162,106.14,169.106,107.515,170.966,107.7Zm-12.987-6.484v6.6a.112.112,0,0,0,.112.112h.953v.8h-3.212v-.8l.806-.014a.276.276,0,0,0,.023-.111v-8.1a.274.274,0,0,0-.024-.114l-.786-.006v-.82l2.448-.011,4.545,7.448v-6.6a.111.111,0,0,0-.112-.112h-.847v-.739H165.1v.739h-.9a.112.112,0,0,0-.112.112l-.031,9.117h-1.536Z" transform="translate(0 -51.84)" fill="#002152" fill-rule="evenodd"/>
    <path id="Path_3915" data-name="Path 3915" d="M106.826,92.319c-1.845-2.213-5.975-2.181-7.378-.955.419-.06.38.206,1.122.159-.424.319-1.109-.041-1.723.26A2.811,2.811,0,0,0,97.7,93.012c-.029.048-.056.1-.083.146l.067-.015c.093-.017.173-.031.239-.04h.006a5.442,5.442,0,0,0,1.475-.094,1.668,1.668,0,0,1-1.211.416c-1.156.049-1.037.313-1.363,1.716h0c.087-.037.163-.067.226-.089h0l.006,0h0c.466-.171,1.156-.122,1.593-.561-.134.5-.59.634-1.105.767-1.061.277-.98.759-.857,2.051l.063-.057q.109-.091.189-.153h0l.005,0h0c.394-.3.853-.33,1.138-.88.022.518-.32.75-.771,1.032-.868.543-.6.952-.3,2.044.06-.066.112-.121.157-.166h0l0,0h0c.35-.352.782-.419.992-1,.09.511-.234.764-.643,1.1-.114.1-.04.063-.112.135h0l0,0h0c-.542.529-.084,1.568.107,2.237.006-.007.043-.175.048-.182h0l0,0h0c.3-.4.865-.838.994-1.444.158.494-.292.983-.652,1.374-.685.739.188,1.941.362,3.1a6.846,6.846,0,0,0,.566-2.082c.369.577-.162,2.377-.608,2.991.554.429,1,.65,1.021,1.152h0a.586.586,0,0,0-.16.4.645.645,0,0,0,.668.614h.278a.551.551,0,0,0-.248.46c0,1.27-1.6,1.95-1.294,2.522a1.817,1.817,0,0,0-1.833,1.644h11.892a1.824,1.824,0,0,0-1.863-1.646.629.629,0,0,0,.057-.248c.03-.476-1.311-1.016-1.311-2.272a.549.549,0,0,0-.249-.46h.268a.646.646,0,0,0,.669-.614.585.585,0,0,0-.178-.415,1.521,1.521,0,0,1,1-1.254c.389-3.345-3.955-4.341-4.269-7.045a2.023,2.023,0,0,0,1.533.988c1.374.044.939,1.446,1.75,1.15.395-.068.957.211,1.23.156.182-.036.418-.669.492-.842.5-1.172.259-1.094-.174-1.675a5.27,5.27,0,0,1-.739-1.3c-.974-2.072.514-.394-1.311-3.707.407-.4,1.035-.764,1.355-.633" transform="translate(0 -51.84)" fill="#002152" fill-rule="evenodd"/>
    <path id="Path_3916" data-name="Path 3916" d="M101.4,91.693c.181.362.16,1.062.97,1.38a1.2,1.2,0,0,1-.582-.752.9.9,0,0,0-.388-.628" transform="translate(0 -51.84)" fill="#fff" fill-rule="evenodd"/>
    <path id="Path_3917" data-name="Path 3917" d="M103.232,92.6a2.7,2.7,0,0,0-2.137-1.125c1.053.109,1.566,1.012,2.137,1.125" transform="translate(0 -51.84)" fill="#fff" fill-rule="evenodd"/>
    <path id="Path_3918" data-name="Path 3918" d="M106.062,95.7c-.52.07-.619-.5-1.479-.45.15.011.426.118.42.246-.01.195.121.356.438.4a.643.643,0,0,0,.621-.2" transform="translate(0 -51.84)" fill="#fff" fill-rule="evenodd"/>
    <path id="Path_3919" data-name="Path 3919" d="M101.578,95.094a2.345,2.345,0,0,0-.133.931c-1.163.849-1.15,2.691-.295,4.395-1.136-1.895-1.449-3.562.428-5.326" transform="translate(0 -51.84)" fill="#fff" fill-rule="evenodd"/>
    <path id="Path_3920" data-name="Path 3920" d="M101.776,98.648c.678,2.71,4.112,3.353,4.113,5.9,0,.846-.589.9-.517-.076.159-2.183-3.251-3.218-3.6-5.827" transform="translate(0 -51.84)" fill="#fff" fill-rule="evenodd"/>
    <path id="Path_3921" data-name="Path 3921" d="M102.6,117.38l-.173-.06c-.052-.017-.792-.326-1.835-.879a27.67,27.67,0,0,1-3.943-2.538,17.776,17.776,0,0,1-3.982-4.183,10.541,10.541,0,0,1-1.844-5.843V90.308L102.6,86.256l11.776,4.052v13.569a10.541,10.541,0,0,1-1.844,5.843,17.775,17.775,0,0,1-3.982,4.183,26.985,26.985,0,0,1-5.776,3.417ZM91.884,91.168v12.709c0,3.287,1.812,6.369,5.386,9.163a26.58,26.58,0,0,0,3.784,2.442c.709.378,1.261.632,1.541.755.279-.123.832-.377,1.54-.754a26.488,26.488,0,0,0,3.784-2.443c3.575-2.793,5.388-5.876,5.388-9.163V91.168L102.6,87.346Z" transform="translate(0 -51.84)" fill="#ba7f15" fill-rule="evenodd"/>
    <path id="Path_3922" data-name="Path 3922" d="M87.161,88.827a2.357,2.357,0,0,0,.772-1.833,2.005,2.005,0,0,0-.712-1.466,2.486,2.486,0,0,0-.814,1.842,1.761,1.761,0,0,0,.5,1.252Z" transform="translate(0 -51.84)" fill="#ba7f15" fill-rule="evenodd"/>
    <path id="Path_3923" data-name="Path 3923" d="M96.288,118.627l.047.034a2.344,2.344,0,0,1-2.018.64,2.054,2.054,0,0,1-1.41-.9,2.553,2.553,0,0,1,1.973-.612,1.992,1.992,0,0,1,1.228.673l.1.191Z" transform="translate(0 -51.84)" fill="#ba7f15" fill-rule="evenodd"/>
    <path id="Path_3924" data-name="Path 3924" d="M96.383,118.619l.066.048a2.345,2.345,0,0,0-.024-2.117,2.056,2.056,0,0,0-1.294-1.058,2.558,2.558,0,0,0,.036,2.066,1.974,1.974,0,0,0,1.052.964l.189-.021-.023.117Z" transform="translate(0 -51.84)" fill="#ba7f15" fill-rule="evenodd"/>
    <path id="Path_3925" data-name="Path 3925" d="M93.7,116.819l.059.064a2.343,2.343,0,0,1-2.107.208,2.054,2.054,0,0,1-1.193-1.17,2.553,2.553,0,0,1,2.057-.19,2.039,2.039,0,0,1,1.033.855l.147.231Z" transform="translate(0 -51.84)" fill="#ba7f15" fill-rule="evenodd"/>
    <path id="Path_3926" data-name="Path 3926" d="M93.97,116.719a2.367,2.367,0,0,0,.156-2.087,2.054,2.054,0,0,0-1.19-1.174,2.555,2.555,0,0,0-.157,2.06,1.982,1.982,0,0,0,.943,1.052l.239.1Z" transform="translate(0 -51.84)" fill="#ba7f15" fill-rule="evenodd"/>
    <path id="Path_3927" data-name="Path 3927" d="M91.522,114.68l.023.024a2.344,2.344,0,0,1-2.1.227,2.051,2.051,0,0,1-1.2-1.159,2.554,2.554,0,0,1,2.055-.209,1.98,1.98,0,0,1,1.072.908l.068.22Z" transform="translate(0 -51.84)" fill="#ba7f15" fill-rule="evenodd"/>
    <path id="Path_3928" data-name="Path 3928" d="M91.629,114.678l.043.045a2.345,2.345,0,0,0,.375-2.083,2.051,2.051,0,0,0-1.072-1.283,2.553,2.553,0,0,0-.353,2.035,1.928,1.928,0,0,0,.9,1.169l.184,0-.042.112Z" transform="translate(0 -51.84)" fill="#ba7f15" fill-rule="evenodd"/>
    <path id="Path_3929" data-name="Path 3929" d="M89.426,112.149l.061.11a2.344,2.344,0,0,1-2.1-.285,2.054,2.054,0,0,1-.89-1.415,2.551,2.551,0,0,1,2.045.291,1.93,1.93,0,0,1,.835,1.214l.028.131Z" transform="translate(0 -51.84)" fill="#ba7f15" fill-rule="evenodd"/>
    <path id="Path_3930" data-name="Path 3930" d="M89.439,112.158l.04.08a2.343,2.343,0,0,0,.962-1.886,2.055,2.055,0,0,0-.655-1.538,2.555,2.555,0,0,0-.927,1.847,2.035,2.035,0,0,0,.42,1.273l.161.213Z" transform="translate(0 -51.84)" fill="#ba7f15" fill-rule="evenodd"/>
    <path id="Path_3931" data-name="Path 3931" d="M87.976,109.564l.033.11a2.346,2.346,0,0,1-1.975-.763,2.054,2.054,0,0,1-.539-1.582,2.554,2.554,0,0,1,1.923.756,2.035,2.035,0,0,1,.537,1.23l-.03.221Z" transform="translate(0 -51.84)" fill="#ba7f15" fill-rule="evenodd"/>
    <path id="Path_3932" data-name="Path 3932" d="M87.961,109.627a2.344,2.344,0,0,0,1.414-1.576,2.051,2.051,0,0,0-.238-1.654,2.55,2.55,0,0,0-1.37,1.546,1.989,1.989,0,0,0,.11,1.4Z" transform="translate(0 -51.84)" fill="#ba7f15" fill-rule="evenodd"/>
    <path id="Path_3934" data-name="Path 3934" d="M87.176,106.755l.078.1a2.346,2.346,0,0,0,1.64-1.34,2.055,2.055,0,0,0,.019-1.671,2.556,2.556,0,0,0-1.591,1.317,2,2,0,0,0-.114,1.381c.141.1.127.108-.032.214" transform="translate(0 -51.84)" fill="#ba7f15" fill-rule="evenodd"/>
    <path id="Path_3936" data-name="Path 3936" d="M87.3,103.659l0,.068a2.344,2.344,0,0,0,1.6-1.385,2.05,2.05,0,0,0-.028-1.671,2.549,2.549,0,0,0-1.553,1.361,2.017,2.017,0,0,0-.082,1.363v.235Z" transform="translate(0 -51.84)" fill="#ba7f15" fill-rule="evenodd"/>
    <path id="Path_3938" data-name="Path 3938" d="M87.19,100.564l.116.107a2.346,2.346,0,0,0,1.6-1.386,2.05,2.05,0,0,0-.028-1.671,2.548,2.548,0,0,0-1.553,1.362,2,2,0,0,0-.079,1.371l-.035.188Z" transform="translate(0 -51.84)" fill="#ba7f15" fill-rule="evenodd"/>
    <path id="Path_3940" data-name="Path 3940" d="M87.3,97.446a2.39,2.39,0,0,0,1.6-1.3,2.058,2.058,0,0,0,.054-1.67,2.555,2.555,0,0,0-1.619,1.284,1.948,1.948,0,0,0-.113,1.455l.054.211Z" transform="translate(0 -51.84)" fill="#ba7f15" fill-rule="evenodd"/>
    <path id="Path_3942" data-name="Path 3942" d="M87.272,94.451l.006.082a2.412,2.412,0,0,0,1.629-1.4,2.05,2.05,0,0,0-.028-1.671,2.548,2.548,0,0,0-1.553,1.362,2.026,2.026,0,0,0-.089,1.342l.036.283Z" transform="translate(0 -51.84)" fill="#ba7f15" fill-rule="evenodd"/>
    <path id="Path_3943" data-name="Path 3943" d="M87.06,88.267a.12.12,0,0,1,.239,0c0,.094-.017.643-.017.737.012,5.937.024,11.727.036,17.668,1.277,7.89,11.571,13.417,14.663,15.268l-.8,0c-2.69-1.73-12.786-6.961-14.1-15.271L87.042,88.98Z" transform="translate(0 -51.84)" fill="#ba7f15"/>
    <path id="Path_3945" data-name="Path 3945" d="M87.255,91.448l.051.013a2.348,2.348,0,0,0,1.6-1.386,2.05,2.05,0,0,0-.028-1.671,2.548,2.548,0,0,0-1.553,1.362,2.04,2.04,0,0,0-.095,1.358l.056.288Z" transform="translate(0 -51.84)" fill="#ba7f15" fill-rule="evenodd"/>
    <path id="Path_3946" data-name="Path 3946" d="M98.8,120.436l.083.067a2.343,2.343,0,0,1-2.054.515,2.058,2.058,0,0,1-1.352-.983,2.557,2.557,0,0,1,2.008-.489,2.041,2.041,0,0,1,1.141.688l.1.188Z" transform="translate(0 -51.84)" fill="#ba7f15" fill-rule="evenodd"/>
    <path id="Path_3947" data-name="Path 3947" d="M99.061,120.251a2.359,2.359,0,0,0-.223-2.091,2.05,2.05,0,0,0-1.384-.937,2.558,2.558,0,0,0,.222,2.054,2,2,0,0,0,1.107.859l-.045-.069Z" transform="translate(0 -51.84)" fill="#ba7f15" fill-rule="evenodd"/>
    <path id="Path_3948" data-name="Path 3948" d="M118.028,88.827a2.356,2.356,0,0,1-.771-1.833,2.005,2.005,0,0,1,.712-1.466,2.486,2.486,0,0,1,.814,1.842,1.8,1.8,0,0,1-.519,1.27l-.182.147Z" transform="translate(0 -51.84)" fill="#ba7f15" fill-rule="evenodd"/>
    <path id="Path_3949" data-name="Path 3949" d="M108.9,118.627l-.046.034a2.344,2.344,0,0,0,2.018.64,2.056,2.056,0,0,0,1.41-.9,2.553,2.553,0,0,0-1.973-.612,1.992,1.992,0,0,0-1.228.673Z" transform="translate(0 -51.84)" fill="#ba7f15" fill-rule="evenodd"/>
    <path id="Path_3950" data-name="Path 3950" d="M108.741,118.667a2.345,2.345,0,0,1,.024-2.117,2.054,2.054,0,0,1,1.294-1.058,2.554,2.554,0,0,1-.037,2.066l-1.051.964Z" transform="translate(0 -51.84)" fill="#ba7f15" fill-rule="evenodd"/>
    <path id="Path_3951" data-name="Path 3951" d="M111.427,116.883a2.343,2.343,0,0,0,2.107.208,2.054,2.054,0,0,0,1.193-1.17,2.553,2.553,0,0,0-2.057-.19,2.039,2.039,0,0,0-1.033.855Z" transform="translate(0 -51.84)" fill="#ba7f15" fill-rule="evenodd"/>
    <path id="Path_3952" data-name="Path 3952" d="M111.22,116.719a2.367,2.367,0,0,1-.156-2.087,2.054,2.054,0,0,1,1.19-1.174,2.555,2.555,0,0,1,.157,2.06,1.986,1.986,0,0,1-.943,1.052l-.24.1a.09.09,0,0,0-.008.053" transform="translate(0 -51.84)" fill="#ba7f15" fill-rule="evenodd"/>
    <path id="Path_3953" data-name="Path 3953" d="M113.667,114.68l-.022.024a2.344,2.344,0,0,0,2.105.227,2.054,2.054,0,0,0,1.2-1.159,2.554,2.554,0,0,0-2.055-.209,1.98,1.98,0,0,0-1.072.908l-.068.22a.085.085,0,0,1-.092-.011" transform="translate(0 -51.84)" fill="#ba7f15" fill-rule="evenodd"/>
    <path id="Path_3954" data-name="Path 3954" d="M113.56,114.678l-.042.045a2.345,2.345,0,0,1-.375-2.083,2.053,2.053,0,0,1,1.071-1.283,2.553,2.553,0,0,1,.354,2.035,1.928,1.928,0,0,1-.9,1.169l-.184,0a.085.085,0,0,0,.075.12" transform="translate(0 -51.84)" fill="#ba7f15" fill-rule="evenodd"/>
    <path id="Path_3955" data-name="Path 3955" d="M115.764,112.149l-.061.11a2.345,2.345,0,0,0,2.1-.285,2.054,2.054,0,0,0,.89-1.415,2.551,2.551,0,0,0-2.045.291,1.926,1.926,0,0,0-.835,1.214Z" transform="translate(0 -51.84)" fill="#ba7f15" fill-rule="evenodd"/>
    <path id="Path_3956" data-name="Path 3956" d="M115.731,112.236a2.343,2.343,0,0,1-.984-1.875,2.054,2.054,0,0,1,.637-1.545,2.553,2.553,0,0,1,.948,1.836,2.036,2.036,0,0,1-.4,1.278Z" transform="translate(0 -51.84)" fill="#ba7f15" fill-rule="evenodd"/>
    <path id="Path_3957" data-name="Path 3957" d="M117.214,109.564a.918.918,0,0,1-.033.11,2.346,2.346,0,0,0,1.975-.763,2.058,2.058,0,0,0,.539-1.582,2.554,2.554,0,0,0-1.923.756,2.035,2.035,0,0,0-.537,1.23Z" transform="translate(0 -51.84)" fill="#ba7f15" fill-rule="evenodd"/>
    <path id="Path_3958" data-name="Path 3958" d="M117.233,109.626a2.344,2.344,0,0,1-1.418-1.573,2.058,2.058,0,0,1,.234-1.655,2.561,2.561,0,0,1,1.374,1.543,1.99,1.99,0,0,1-.107,1.4Z" transform="translate(0 -51.84)" fill="#ba7f15" fill-rule="evenodd"/>
    <path id="Path_3959" data-name="Path 3959" d="M117.969,106.732l-.017.22a2.347,2.347,0,0,0,1.787-1.137,2.055,2.055,0,0,0,.216-1.657,2.555,2.555,0,0,0-1.736,1.12,1.956,1.956,0,0,0-.27,1.38Z" transform="translate(0 -51.84)" fill="#ba7f15" fill-rule="evenodd"/>
    <path id="Path_3960" data-name="Path 3960" d="M118,106.823v.108a2.347,2.347,0,0,1-1.694-1.27,2.058,2.058,0,0,1-.088-1.669,2.553,2.553,0,0,1,1.645,1.25,2.007,2.007,0,0,1,.17,1.375Z" transform="translate(0 -51.84)" fill="#ba7f15" fill-rule="evenodd"/>
    <path id="Path_3961" data-name="Path 3961" d="M118.083,103.667v.009a2.342,2.342,0,0,0,1.68-1.288,2.049,2.049,0,0,0,.071-1.67,2.552,2.552,0,0,0-1.631,1.267,2,2,0,0,0-.155,1.379l.062.27a.08.08,0,0,1-.027.033" transform="translate(0 -51.84)" fill="#ba7f15" fill-rule="evenodd"/>
    <path id="Path_3962" data-name="Path 3962" d="M117.888,103.659l0,.068a2.344,2.344,0,0,1-1.6-1.385,2.05,2.05,0,0,1,.028-1.671,2.552,2.552,0,0,1,1.553,1.361,2.017,2.017,0,0,1,.082,1.363Z" transform="translate(0 -51.84)" fill="#ba7f15" fill-rule="evenodd"/>
    <path id="Path_3963" data-name="Path 3963" d="M118.1,100.608a2.369,2.369,0,0,0,1.659-1.269,2.054,2.054,0,0,0,.088-1.669,2.554,2.554,0,0,0-1.644,1.25,1.981,1.981,0,0,0-.16,1.409l.065.265Z" transform="translate(0 -51.84)" fill="#ba7f15" fill-rule="evenodd"/>
    <path id="Path_3964" data-name="Path 3964" d="M117.887,100.618l0,.053a2.346,2.346,0,0,1-1.6-1.386,2.05,2.05,0,0,1,.028-1.671,2.55,2.55,0,0,1,1.553,1.362,2.008,2.008,0,0,1,.078,1.371Z" transform="translate(0 -51.84)" fill="#ba7f15" fill-rule="evenodd"/>
    <path id="Path_3965" data-name="Path 3965" d="M118.137,97.475a2.345,2.345,0,0,0,1.634-1.347,2.059,2.059,0,0,0,.011-1.672,2.553,2.553,0,0,0-1.585,1.325,2.03,2.03,0,0,0-.119,1.344l.016.341a.086.086,0,0,0,.043.009" transform="translate(0 -51.84)" fill="#ba7f15" fill-rule="evenodd"/>
    <path id="Path_3966" data-name="Path 3966" d="M117.892,97.446a2.39,2.39,0,0,1-1.6-1.3,2.05,2.05,0,0,1-.054-1.67,2.55,2.55,0,0,1,1.618,1.284,1.944,1.944,0,0,1,.114,1.455l-.09.211Z" transform="translate(0 -51.84)" fill="#ba7f15" fill-rule="evenodd"/>
    <path id="Path_3967" data-name="Path 3967" d="M118.109,94.468a2.361,2.361,0,0,0,1.655-1.293,2.055,2.055,0,0,0,.065-1.67,2.556,2.556,0,0,0-1.627,1.273,1.989,1.989,0,0,0-.141,1.408Z" transform="translate(0 -51.84)" fill="#ba7f15" fill-rule="evenodd"/>
    <path id="Path_3968" data-name="Path 3968" d="M117.916,94.52a2.4,2.4,0,0,1-1.633-1.388,2.05,2.05,0,0,1,.028-1.671,2.55,2.55,0,0,1,1.553,1.362,2.032,2.032,0,0,1,.089,1.342Z" transform="translate(0 -51.84)" fill="#ba7f15" fill-rule="evenodd"/>
    <path id="Path_3969" data-name="Path 3969" d="M118.13,88.267a.12.12,0,0,0-.239,0c0,.094.017.643.017.737-.012,5.937-.024,11.727-.036,17.668-1.277,7.89-11.571,13.417-14.663,15.268l.8,0c2.69-1.73,12.786-6.961,14.1-15.271l.036-17.693Z" transform="translate(0 -51.84)" fill="#ba7f15"/>
    <path id="Path_3970" data-name="Path 3970" d="M118.094,91.462l-.006.019a2.343,2.343,0,0,0,1.676-1.294,2.055,2.055,0,0,0,.065-1.67A2.553,2.553,0,0,0,118.2,89.79a1.986,1.986,0,0,0-.141,1.407Z" transform="translate(0 -51.84)" fill="#ba7f15" fill-rule="evenodd"/>
    <path id="Path_3971" data-name="Path 3971" d="M117.935,91.448a.066.066,0,0,1-.051.013,2.348,2.348,0,0,1-1.6-1.386,2.051,2.051,0,0,1,.028-1.671,2.55,2.55,0,0,1,1.553,1.362,2.04,2.04,0,0,1,.1,1.358c-.013.067-.088.285-.024.324" transform="translate(0 -51.84)" fill="#ba7f15" fill-rule="evenodd"/>
    <path id="Path_3972" data-name="Path 3972" d="M106.3,120.5a2.345,2.345,0,0,0,2.054.515,2.053,2.053,0,0,0,1.352-.983,2.554,2.554,0,0,0-2.007-.489,2.037,2.037,0,0,0-1.141.688Z" transform="translate(0 -51.84)" fill="#ba7f15" fill-rule="evenodd"/>
    <path id="Path_3973" data-name="Path 3973" d="M106.129,120.251a2.355,2.355,0,0,1,.223-2.091,2.051,2.051,0,0,1,1.383-.937,2.55,2.55,0,0,1-.222,2.054,1.993,1.993,0,0,1-1.106.859Z" transform="translate(0 -51.84)" fill="#ba7f15" fill-rule="evenodd"/>
    <path id="Path_3974" data-name="Path 3974" d="M174.18,116.043c0-.2.028-.28.076-.328a.663.663,0,0,1,.4-.088,1,1,0,0,1,1.07,1.1c0,.909-.573,1.155-1.025,1.155a1.589,1.589,0,0,1-.52-.089Zm-1.271-.645v.206c.54.033.6.061.6.7v2.811c0,.591-.063.649-.641.7v.206H174.9v-.206c-.661-.048-.724-.087-.724-.692v-1.082l.543.136a2.034,2.034,0,0,0,.341-.01,1.46,1.46,0,0,0,1.418-1.465,1.2,1.2,0,0,0-.475-1.017,2.117,2.117,0,0,0-1.229-.287Zm-1.514,0h-1.752v.209c.5.033.666.131.7.4a6.707,6.707,0,0,1,.058,1.148v.547c0,1.182-.354,2.01-1.386,2.01-.885,0-1.375-.643-1.375-1.816v-1.554c0-.662.063-.706.631-.739V115.4H166.33v.209c.573.048.636.081.636.739v1.7a1.97,1.97,0,0,0,.658,1.728,1.944,1.944,0,0,0,1.2.347,1.857,1.857,0,0,0,1.338-.5,2.589,2.589,0,0,0,.556-1.9v-.56a10.848,10.848,0,0,1,.043-1.128c.03-.293.215-.4.638-.424Zm-9.187.159c.96,0,1.787.788,1.787,2.28,0,1.375-.749,2.027-1.568,2.027-1.047,0-1.821-.987-1.821-2.295,0-1.347.779-2.012,1.6-2.012Zm.151-.269a2.446,2.446,0,0,0-2.55,2.466,2.376,2.376,0,0,0,2.457,2.379,2.422,2.422,0,0,0,2.537-2.486,2.363,2.363,0,0,0-2.439-2.359Zm-6.847,2.482v-1.749c0-.185.028-.268.078-.306a.724.724,0,0,1,.391-.068.959.959,0,0,1,1.046,1.045,1,1,0,0,1-.39.874,1.229,1.229,0,0,1-.8.2Zm3.065,2.114a.92.92,0,0,1-.511-.328,5.665,5.665,0,0,1-.588-.751c-.218-.327-.514-.8-.64-1.02a1.29,1.29,0,0,0,.917-1.206,1.04,1.04,0,0,0-.48-.932,2.053,2.053,0,0,0-1.186-.249h-1.863v.209c.565.038.628.078.628.686v2.82c0,.6-.068.654-.656.7v.206h1.969v-.206c-.587-.048-.655-.1-.655-.7V118h.2c.378,0,.506.088.637.292.221.342.46.776.709,1.123a1.363,1.363,0,0,0,1.223.653,2.244,2.244,0,0,0,.258.015Zm-5.878-2.022h-1.918v.206c.74.058.784.108.784.635v.586a.432.432,0,0,1-.243.458,1.47,1.47,0,0,1-.628.127,2.076,2.076,0,0,1-2.05-2.232,1.916,1.916,0,0,1,1.942-2.1,1.315,1.315,0,0,1,1.477,1.147l.213-.049c-.058-.5-.092-.89-.111-1.137a5.972,5.972,0,0,0-1.466-.22c-1.48,0-2.863.813-2.863,2.447a2.467,2.467,0,0,0,2.765,2.4,7.686,7.686,0,0,0,1.69-.273,3.036,3.036,0,0,1-.048-.659v-.6c0-.433.023-.468.456-.536Z" transform="translate(0 -51.84)" fill="#002152"/>
    <path id="Path_3975" data-name="Path 3975" d="M198.767,97.24V95.081h.527l.543,1.724.529-1.724h.522V97.24h-.331V95.427L200,97.24h-.325L199.1,95.4V97.24Zm-1.308,0V95.4h-.7v-.32h1.768v.32h-.711V97.24Z" transform="translate(0 -51.84)" fill="#545454"/>
    <path id="Path_3933" data-name="Path 3933" d="M87.221,106.732l.016.22a2.345,2.345,0,0,1-1.786-1.137,2.055,2.055,0,0,1-.216-1.657,2.555,2.555,0,0,1,1.736,1.12,1.962,1.962,0,0,1,.27,1.38.059.059,0,0,0-.009-.031l-.007.089Z" transform="translate(0 -51.84)" fill="#ba7f15" fill-rule="evenodd"/>
    <path id="Path_3935" data-name="Path 3935" d="M87.107,103.667v.009a2.345,2.345,0,0,1-1.681-1.288,2.057,2.057,0,0,1-.071-1.67,2.551,2.551,0,0,1,1.632,1.267,2,2,0,0,1,.155,1.379l-.062.27Z" transform="translate(0 -51.84)" fill="#ba7f15" fill-rule="evenodd"/>
    <path id="Path_3937" data-name="Path 3937" d="M87.088,100.608a2.369,2.369,0,0,1-1.659-1.269,2.054,2.054,0,0,1-.089-1.669,2.556,2.556,0,0,1,1.645,1.25,1.975,1.975,0,0,1,.159,1.409l-.064.265Z" transform="translate(0 -51.84)" fill="#ba7f15" fill-rule="evenodd"/>
    <path id="Path_3939" data-name="Path 3939" d="M87.052,97.475a2.345,2.345,0,0,1-1.633-1.347,2.058,2.058,0,0,1-.011-1.672,2.553,2.553,0,0,1,1.585,1.325,2.03,2.03,0,0,1,.119,1.344l-.045.306.029.035Z" transform="translate(0 -51.84)" fill="#ba7f15" fill-rule="evenodd"/>
    <path id="Path_3941" data-name="Path 3941" d="M87.08,94.468a2.361,2.361,0,0,1-1.654-1.293,2.051,2.051,0,0,1-.066-1.67,2.555,2.555,0,0,1,1.628,1.273,1.983,1.983,0,0,1,.141,1.408l-.071.252Z" transform="translate(0 -51.84)" fill="#ba7f15" fill-rule="evenodd"/>
    <path id="Path_3944" data-name="Path 3944" d="M87.1,91.462l.007.019a2.341,2.341,0,0,1-1.676-1.294,2.051,2.051,0,0,1-.066-1.67,2.552,2.552,0,0,1,1.628,1.273,1.981,1.981,0,0,1,.141,1.407l-.086.22Z" transform="translate(0 -51.84)" fill="#ba7f15" fill-rule="evenodd"/>
  </g>
</svg>
