<svg xmlns="http://www.w3.org/2000/svg" width="61.754" height="111.831" viewBox="0 0 61.754 111.831">
  <path id="Path_4907" data-name="Path 4907" d="M311.631,206.4c.935,1.875.824,5.5,5.019,7.138a6.2,6.2,0,0,1-3.012-3.889c-.526-2.11-1.365-2.868-2.007-3.249m9.455,4.687c-1.473-3.817-9.674-6.421-11.055-5.821C315.478,205.831,318.133,210.5,321.086,211.085Zm14.65,16.045c-2.694.361-3.2-2.6-7.655-2.331.776.058,2.207.609,2.173,1.274-.05,1.011.624,1.843,2.266,2.091A3.343,3.343,0,0,0,335.736,227.13Zm-22.179,15.26c3.507,14.023,21.28,17.351,21.283,30.55,0,4.378-3.048,4.661-2.679-.4C332.985,261.246,315.34,255.891,313.557,242.39ZM312.531,224c-.774,1.716-.579,3.09-.69,4.82-6.018,4.392-5.95,13.926-1.526,22.741C304.435,241.755,302.814,233.129,312.531,224Zm27.157-14.36c-9.546-11.45-30.921-11.285-38.184-4.942,2.172-.313,1.969,1.065,5.809.824-2.195,1.65-5.74-.215-8.915,1.345-2.474,1.218-4.155,3.32-5.919,6.359-.147.251-.285.5-.425.753.117-.027.231-.051.343-.073.48-.093.9-.162,1.24-.207.005,0,0,0,0,0h.026l0,0c2.545-.355,4.344.6,7.632-.488-1.879,1.678-3.521,2.041-6.268,2.156-5.983.252-5.364,1.62-7.054,8.879l.007,0c.45-.189.845-.344,1.171-.46v-.005l.029-.007v0c2.411-.882,5.982-.628,8.244-2.9-.695,2.593-3.052,3.281-5.716,3.971-5.494,1.43-5.075,3.926-4.437,10.612.112-.1.219-.2.326-.295.375-.318.7-.582.978-.79v-.005l.025-.015h0c2.038-1.561,4.414-1.708,5.89-4.554.113,2.68-1.656,3.883-3.991,5.341-4.49,2.809-3.113,4.926-1.57,10.578.31-.342.583-.627.816-.858l0,0,.025-.018h0c1.808-1.819,4.046-2.164,5.129-5.182.47,2.642-1.207,3.951-3.323,5.709-.592.49-.207.325-.58.7l0,0-.024.018v.006c-2.8,2.739-.434,8.115.552,11.579.031-.038.227-.9.253-.94l-.005,0,.019-.022h0c1.55-2.044,4.476-4.332,5.147-7.468.817,2.555-1.514,5.085-3.377,7.108-3.545,3.825.973,10.046,1.876,16.028a35.623,35.623,0,0,0,2.927-10.776c1.907,2.985-.838,12.3-3.144,15.48,2.866,2.219,5.172,3.366,5.282,5.96h.014a3.034,3.034,0,0,0-.829,2.057,3.338,3.338,0,0,0,3.46,3.173h1.44a2.855,2.855,0,0,0-1.288,2.382c0,6.575-8.263,10.092-6.7,13.052-5.252.3-9.441,4.009-9.482,8.511h61.538c-.044-4.547-4.315-8.286-9.639-8.519a3.229,3.229,0,0,0,.3-1.287c.155-2.461-6.784-5.256-6.784-11.757a2.855,2.855,0,0,0-1.288-2.382h1.388a3.337,3.337,0,0,0,3.458-3.173,3.034,3.034,0,0,0-.918-2.151c.114-2.974,2.378-5.2,5.194-6.487,2.012-17.31-20.466-22.466-22.092-36.458.655,1.859,4.512,5,7.93,5.11,7.113.229,4.863,7.484,9.057,5.952,2.046-.348,4.957,1.094,6.369.81.938-.188,2.164-3.462,2.545-4.359,2.575-6.064,1.342-5.662-.9-8.668-2.123-2.845-2.166-3.228-3.82-6.739-5.045-10.719,2.659-2.038-6.784-19.182C334.784,210.825,338.031,208.959,339.688,209.637Z" transform="translate(-286.915 -200.372)" fill="#002152" fill-rule="evenodd"/>
</svg>
